# xmcd
#
# Track frame offsets:
#	150
#	14477
#	33262
#	52160
#	76400
#	98397
#	119395
#	139535
#	162562
#	189380
#
# Disc length: 2594 seconds
#
# Revision: 2
# Processed by: cddbd v1.5.1PL0 Copyright (c) Steve Scherf et al.
# Submitted via: audiograbber 1.83.01
#
DISCID=7b0a200a
DTITLE=Peter Meyer - Leif
DYEAR=1991
DGENRE=Kabarett
TTITLE0=Meyer Leier
TTITLE1=Sport Is A Gaudi
TTITLE2=Korruption
TTITLE3=Aus Der Bahn
TTITLE4=I Woat
TTITLE5=Wo Ift Mein Gebiff
TTITLE6=Vü Z'vü Promü
TTITLE7=Topf'nnega
TTITLE8=Mei Oide Hat Sich Abg'seilt
TTITLE9=Codao'
EXTD=
EXTT0=
EXTT1=
EXTT2=
EXTT3=
EXTT4=
EXTT5=
EXTT6=
EXTT7=
EXTT8=
EXTT9=
PLAYORDER=
